<svg width="262" height="163" viewBox="0 0 262 163" fill="none" xmlns="http://www.w3.org/2000/svg">
<path d="M86.6484 0.101822C85.7331 0.163284 81.4457 0.839249 77.1582 1.51523C66.7528 3.23589 37.8005 3.66605 36.4035 2.12975C35.6327 1.33087 35.3436 1.33087 33.7539 2.37555C31.008 4.28056 27.1541 9.56544 25.6608 13.5598C24.4564 16.6939 24.3119 17.9229 24.2156 23.5765C24.071 29.1686 24.2637 30.6435 25.2754 34.3306C27.2505 41.4591 27.2987 41.0289 24.6491 41.8892C23.3966 42.3194 20.7952 42.5652 18.8683 42.5037C15.6407 42.3194 15.3516 42.4423 13.6174 44.2244C10.8715 47.0512 9.42628 52.459 9.7635 58.6042C10.1489 65.7326 11.2087 70.2801 13.0393 72.308C13.9064 73.2298 15.3516 74.2744 16.3151 74.5817C24.6973 77.4085 27.8767 78.6375 27.8767 79.0063C27.8767 79.3135 26.1907 79.4979 24.1674 79.5593C10.727 79.8051 9.81167 80.0509 6.24683 84.1068C-0.449285 91.8497 -2.13536 114.587 3.01921 127.246C5.42788 133.084 5.52423 133.146 10.5824 133.268C13.8101 133.33 16.3633 133.821 19.4464 134.989C21.855 135.849 25.5162 136.894 27.6359 137.263C29.7555 137.632 33.0313 138.492 34.8619 139.106C36.7407 139.721 40.8354 140.827 44.0149 141.564C52.0117 143.285 55.8655 144.453 58.7078 145.866C61.8872 147.464 65.7411 147.464 72.1964 145.805C74.9904 145.129 79.4224 144.33 82.0238 144.023C84.6251 143.715 87.5637 143.101 88.479 142.732C89.4907 142.302 91.4176 142.179 93.1037 142.363C94.7416 142.548 96.8612 142.486 97.8247 142.24C99.5589 141.749 99.6071 141.749 102.112 145.805C103.557 148.017 106.64 152.687 109.001 156.19C113.192 162.397 113.337 162.581 115.023 162.274C115.986 162.089 119.021 161.659 121.815 161.291C124.609 160.922 129.812 160.184 133.377 159.693C136.942 159.201 141.614 158.648 143.734 158.464C145.854 158.218 149.322 157.665 151.442 157.235C159.776 155.33 180.779 153.67 183.188 154.654C185.5 155.637 196.966 154.039 210.695 150.782C221.245 148.324 222.787 148.017 238.877 146.173C244.079 145.559 248.849 144.637 251.402 143.715C253.666 142.916 256.653 142.056 258.05 141.81C260.844 141.38 261.518 140.458 261.518 137.263C261.518 134.743 260.073 131.302 257.953 128.721C256.99 127.553 256.219 126.14 256.219 125.587C256.219 125.034 256.99 123.743 257.905 122.699C259.736 120.609 259.977 119.38 258.869 118.213C257.857 117.168 257.953 115.939 259.11 115.447C259.639 115.263 260.073 114.771 260.073 114.464C260.073 114.157 260.507 113.911 261.037 113.911C261.566 113.911 262 113.665 262 113.358C262 112.313 251.932 97.5648 249.09 94.3693C247.452 92.5872 245.091 89.3916 243.839 87.3023C238.925 79.0677 228.616 62.8444 223.654 55.5316C220.812 51.2914 217.536 46.1909 216.38 44.1629C215.175 42.135 213.297 39.1853 212.14 37.649L210.021 34.8222L206.745 36.9116C202.747 39.3697 197.303 40.5373 187.09 41.0903C171.386 41.8892 161.944 43.4255 155.97 46.0065L152.742 47.3584L150.767 43.9786C148.551 40.1686 148.455 39.554 149.563 37.4032C150.141 36.2356 150.189 35.6826 149.756 34.5764C149.274 33.5317 149.322 32.6714 149.804 30.8279C150.286 28.9228 150.286 28.124 149.852 27.2022C149.033 25.543 149.129 24.9285 150.478 22.8391C151.153 21.8559 151.683 20.2581 151.683 19.2749C151.683 17.7386 151.875 17.4928 153.224 17.3084C155.007 17.0626 156.741 14.4816 156.307 12.6995C156.066 11.7777 154.669 11.1017 149.659 9.56544C146.143 8.39786 141.952 6.86156 140.362 6.06267C138.772 5.26379 133.618 3.6046 128.945 2.37555L120.418 0.163284L104.376 0.0403748C95.5605 -0.0210724 87.5637 -0.0210724 86.6484 0.101822ZM123.983 3.23589C125.573 3.9733 129.378 5.07944 132.413 5.75542C141.325 7.72188 154.525 13.2526 153.61 14.6045C153.272 15.1576 147.781 15.3419 132.317 15.219C114.493 15.0961 110.253 15.219 103.316 16.2637C98.8363 16.8782 90.3578 17.6157 84.4806 17.8C72.8708 18.2916 69.7877 17.8 64.0069 14.6045C61.3092 13.1297 44.063 7.47607 39.7274 6.6772C37.656 6.24702 37.4633 6.12413 38.1859 5.44815C38.8121 4.83363 40.7872 4.71072 46.0863 4.95654C58.0334 5.5096 68.3425 5.01799 76.7729 3.54314C80.3377 2.86717 86.9375 2.49846 96.9094 2.37555C105.099 2.25264 111.843 2.06828 111.94 1.94539C112.036 1.82248 114.107 1.76103 116.612 1.82248C119.888 1.88394 121.863 2.25264 123.983 3.23589ZM35.5845 5.69395C35.5845 6.00122 34.8137 7.59897 33.8503 9.13527C31.2489 13.5598 30.719 16.0794 30.6226 24.8056C30.5745 30.6435 30.7671 33.2859 31.3934 35.8669C32.9831 42.2579 31.1044 44.2244 28.7439 38.6323C26.7687 33.9005 25.8053 28.1854 26.0461 21.9173C26.2388 16.9397 26.3834 16.2023 28.1176 12.5151C30.8153 6.73865 32.0678 5.1409 33.9948 5.1409C34.8619 5.1409 35.5845 5.3867 35.5845 5.69395ZM54.9984 13.4369C57.3108 14.2973 60.6829 15.7106 62.4653 16.571C70.5585 20.381 77.3991 20.7497 99.4144 18.5989C109.001 17.6771 117.287 17.3084 130.968 17.2469L149.515 17.124L149.659 18.6603C149.756 19.5207 149.226 21.5486 148.455 23.3922C146.865 27.2022 147.588 26.9564 136.026 27.8782C127.451 28.5541 121.767 29.353 118.925 30.3362C116.998 31.0122 116.661 31.0122 135.641 29.353C142.337 28.7385 147.925 28.4312 148.07 28.6156C148.262 28.7999 148.118 29.6603 147.781 30.3977C147.492 31.1966 147.203 32.5485 147.251 33.4703C147.299 35.4368 147.01 35.5597 140.266 36.5429C137.231 36.9731 135.448 37.5261 135.641 37.8948C135.93 38.4479 141.325 38.1406 145.613 37.2803C147.395 36.9116 147.492 36.9731 147.203 38.3864C147.01 39.2468 147.203 40.6602 147.588 41.6434C148.6 44.04 148.551 44.1629 146.432 45.392C144.505 46.4367 144.505 46.4367 142.433 44.9004C140.169 43.2412 132.702 40.0457 128.559 39.001C124.127 37.8948 112.469 36.4814 107.845 36.4814C103.75 36.4814 99.4144 37.3418 98.5473 38.325C98.3546 38.5708 99.1735 40.2915 100.378 42.135C101.582 43.9786 102.546 45.6992 102.546 45.8836C102.546 46.068 99.6553 46.1909 96.1868 46.1294C89.1534 46.0065 86.3594 46.8054 86.7929 48.8333C86.9856 49.7551 86.4076 50.0009 82.361 50.6154C79.8078 50.9841 76.6765 51.2299 75.3276 51.107C72.9671 50.9227 72.9671 50.9227 72.3409 48.1573C71.9073 46.2523 71.8592 44.9004 72.1482 43.6713C72.4854 42.5652 72.4372 41.3976 72.1 40.1686C71.4738 37.7719 72.2445 36.4814 74.2678 36.5429C75.1349 36.6043 76.7247 36.1742 77.8327 35.6826C78.9407 35.1295 81.5902 34.3921 83.7098 33.9619C85.9258 33.5317 87.4674 32.9787 87.2747 32.61C86.9375 31.934 82.6982 32.4871 78.748 33.7776C76.0984 34.6379 75.8576 34.6379 74.027 33.4703L72.1 32.3027L76.8692 30.3362C82.4091 28.0625 90.0687 26.0346 93.2964 26.0346C94.5489 26.0346 95.8977 25.7273 96.2831 25.3586C97.632 24.1296 89.1534 25.2357 82.3128 27.1407C78.748 28.1854 75.0868 29.1072 74.2678 29.2301C72.4854 29.5374 72.1964 28.6156 73.5452 27.0793C74.1715 26.3419 74.316 25.4201 74.2197 23.2692C73.9788 19.7665 72.9671 19.8894 72.7744 23.4536C72.5336 27.2022 71.3774 27.3865 64.9222 24.5597C62.0799 23.3307 58.0334 21.9173 55.9619 21.4871C53.8904 20.9955 50.0366 19.705 47.387 18.6603C42.1843 16.5095 37.656 15.4648 36.5961 16.2023C36.2108 16.4481 36.837 16.7553 38.1859 17.0011C39.4384 17.2469 43.1959 18.6603 46.6162 20.1352C50.0366 21.61 54.9984 23.4536 57.7443 24.1296C60.442 24.8056 63.6215 25.9731 64.8258 26.6491C66.0302 27.3251 67.4754 27.8782 68.0534 27.8782C69.6432 27.8782 71.1366 29.4759 70.4621 30.3362C69.6913 31.3195 65.982 30.3362 58.9968 27.2636C54.1313 25.1743 48.9767 23.5765 49.5548 24.3754C49.9402 24.867 67.1863 32.1798 67.9571 32.1798C68.3425 32.1798 69.0651 32.7329 69.4986 33.3474C69.9804 34.0234 70.8475 34.6993 71.4256 34.8222C72.3409 35.0066 72.3409 35.068 71.0884 35.8669C69.6913 36.7272 69.595 37.5876 70.5103 40.2915C70.7993 41.2747 70.5103 41.3976 67.8126 41.3976C65.6448 41.3976 64.9222 41.582 65.4521 42.0121C65.8375 42.3194 66.8491 42.6266 67.6199 42.6266C69.7877 42.6266 70.1731 43.2412 70.3658 46.9283C70.5103 50.0623 70.4139 50.3081 69.3541 50.4925C68.7279 50.6154 66.3674 50.1852 64.055 49.4478C55.9137 46.9897 45.8936 44.3473 42.8105 43.8557C41.0763 43.5484 39.2457 43.1797 38.7158 42.9954C38.1859 42.7495 36.9815 42.5037 36.0662 42.4423C34.4283 42.3194 34.3802 42.2579 34.0429 38.9395C33.8503 37.096 33.8984 35.3139 34.1393 35.0066C34.332 34.7608 36.1144 34.8837 38.0413 35.3753C40.8836 36.1127 41.3653 36.1742 40.6427 35.4368C39.4384 34.3921 36.6925 33.4088 34.7655 33.4088C33.8984 33.4088 33.1758 33.2859 33.1758 33.163C33.1758 33.0401 33.0313 32.4256 32.8868 31.8725C32.5977 30.9508 32.8868 30.8893 35.3918 31.258C36.9334 31.5038 40.4019 32.2412 43.0514 32.8558C45.7009 33.4703 48.3023 34.0234 48.8322 33.9619C50.5183 33.9005 45.8455 32.3642 38.8603 30.582L32.116 28.9228L32.3087 23.638C32.5496 18.2916 33.6094 13.6213 35.5363 9.68834L36.4516 7.72188L43.6295 9.81125C47.5315 10.9788 52.6379 12.5766 54.9984 13.4369ZM213.441 42.4423C215.127 45.0233 218.981 50.8612 222.016 55.4701C230.832 68.7438 240.563 83.9839 242.538 87.5481C243.501 89.3916 246.922 94.1849 250.149 98.2407C255.352 104.816 259.591 111.269 259.591 112.621C259.591 112.866 257.713 114.095 255.448 115.386C250.438 118.151 246.584 118.827 234.975 118.827C221.293 118.827 210.503 122.33 199.663 130.196C195.906 132.9 195.039 133.146 195.039 131.363C195.039 129.213 191.811 122.699 185.597 112.19C178.274 99.8385 178.226 99.777 166.472 78.5761C161.992 70.4644 157.174 62.4142 155.826 60.6935C154.477 58.9729 152.646 56.3304 151.827 54.7941L150.237 51.9674L151.345 51.107C157.56 45.8836 162.618 44.716 185.886 42.9339C198.411 42.0121 203.566 41.0289 207.227 38.9395C208.335 38.325 209.491 37.7719 209.828 37.7719C210.165 37.7105 211.803 39.7998 213.441 42.4423ZM121.767 39.2468C132.124 41.1518 143.638 46.3752 147.299 50.7998C148.166 51.9059 149.756 54.2411 150.816 56.0232C151.875 57.8667 154.043 61.1852 155.633 63.3974C157.271 65.6712 160.017 70.2801 161.799 73.6599C163.533 77.0398 167.339 83.9224 170.229 89.0229C173.12 94.062 177.166 101.252 179.238 105C181.309 108.688 183.718 112.866 184.633 114.218C186.657 117.291 190.703 124.665 190.703 125.28C190.703 125.525 190.029 124.972 189.21 124.051C185.549 120.179 178.853 116.984 171.53 115.755C165.653 114.71 154.958 115.263 148.118 116.984C145.227 117.721 142.626 118.151 142.241 117.967C141.229 117.475 123.212 82.3247 118.395 71.5091C117.142 68.6209 114.059 62.8444 111.602 58.6656C109.145 54.4869 106.785 50.3081 106.4 49.4478C105.966 48.526 104.858 46.5596 103.895 45.0233C102.305 42.5037 101.1 40.0457 101.1 39.3082C101.1 38.0792 115.119 38.0177 121.767 39.2468ZM28.8402 44.7775C29.1774 45.2691 30.6708 46.1294 32.1642 46.621C33.6576 47.1741 35.9699 48.0959 37.2706 48.7718C38.6194 49.3864 41.7507 50.3696 44.2557 50.9227C46.7608 51.4757 51.6744 52.8277 55.0948 53.9953C67.6199 58.0511 72.6299 59.3416 74.5569 58.9114C75.8576 58.6656 76.532 58.7885 76.9655 59.403C77.4473 60.2019 76.9655 60.3863 73.4007 60.755C70.8475 61.0623 68.5352 60.9393 67.2345 60.5092C66.0783 60.1405 62.8507 59.4645 60.1048 58.9114C57.3589 58.4198 52.3971 57.3137 49.0731 56.4534C45.7491 55.6545 41.2208 54.5483 39.0048 53.9953C34.1393 52.7662 20.1208 47.7272 19.4945 46.8668C18.6274 45.8221 20.1208 44.7775 22.963 44.4087C27.5877 43.7942 28.214 43.7942 28.8402 44.7775ZM41.3653 45.6992C44.9302 46.3752 49.8439 47.6657 52.2044 48.4646C54.613 49.3249 59.0932 50.554 62.1763 51.2299C65.3076 51.9059 68.6315 52.8277 69.5468 53.3193C70.7993 53.9953 71.8592 54.1182 73.7861 53.688C75.2313 53.4422 79.3742 52.8277 83.0354 52.459L89.6833 51.7215L90.8877 53.2578L92.0439 54.7941L87.3228 55.1629C84.6733 55.3472 80.0968 55.8388 77.0619 56.269C72.7263 56.8221 71.1366 56.8221 69.3541 56.2075C68.1498 55.7774 63.0434 54.2411 57.9852 52.7662C45.171 49.0791 35.8735 45.945 34.2838 44.7775C33.4649 44.1629 33.3203 43.9171 33.8984 44.1015C34.4283 44.2858 37.8005 45.0233 41.3653 45.6992ZM17.0377 46.1294C15.2071 52.2132 14.2918 64.5036 15.3516 68.1907C15.9779 70.2801 15.8334 70.4644 14.0028 69.6041C12.7021 69.051 12.413 68.498 11.9313 65.7326C11.1124 61.0623 11.5459 52.1517 12.7021 49.0791C13.6174 46.7439 15.2553 45.0847 16.7487 45.0847C17.134 45.0847 17.2786 45.4534 17.0377 46.1294ZM150.334 47.6043L151.297 48.2802L150.334 49.1406C149.419 49.9394 149.178 49.878 147.877 48.8947C147.058 48.2802 146.528 47.5428 146.721 47.3584C147.203 46.6825 149.226 46.8668 150.334 47.6043ZM103.654 48.8333C105.581 50.1238 115.504 67.6991 118.202 74.5817C118.925 76.4253 120.418 79.6208 121.574 81.6487C122.682 83.6766 126.151 90.5592 129.282 97.0117C135.352 109.548 140.506 119.319 141.759 120.609C142.433 121.347 142.674 121.285 143.397 120.548C144.601 119.196 156.404 117.598 164.689 117.598C173.746 117.66 178.13 118.643 182.514 121.715C185.934 124.051 189.499 127.369 189.113 127.799C189.017 127.984 187.427 127.185 185.597 126.079L182.273 124.051H164.689C150.189 124.051 146.528 124.235 143.734 125.034C140.555 126.017 140.314 126.017 139.254 124.911C138.628 124.296 137.279 122.084 136.171 119.933C135.063 117.721 130.583 111.391 125.573 105C115.793 92.5872 113.288 88.7157 105.147 73.3527C101.39 66.2242 97.7765 60.3248 94.5007 55.8388C91.7548 52.1517 89.5388 48.8947 89.5388 48.6489C89.5388 47.7886 91.3694 47.6043 96.813 47.7886C100.282 47.973 102.883 48.3417 103.654 48.8333ZM22.963 50.554C24.4564 51.1685 26.8169 51.9059 28.1176 52.0903C29.4665 52.3361 32.7423 53.3193 35.44 54.364C41.9434 56.7606 47.2425 58.1126 57.9852 60.2019C66.4637 61.8611 66.9455 61.984 66.7046 63.2131C66.6082 63.889 66.7528 65.4868 67.09 66.7158C67.4754 68.0063 67.5235 69.2354 67.2827 69.5426C67.09 69.7884 63.477 69.9728 59.2859 69.9113C53.4087 69.8499 52.3489 69.9113 54.5649 70.3415C57.937 70.956 58.5633 71.5706 57.4071 72.861C56.6363 73.7214 55.9619 73.7214 51.4818 72.9225C48.6877 72.4923 45.6528 72.1851 44.7375 72.2465C43.774 72.3694 45.0747 72.7381 47.8687 73.1683C50.5183 73.5985 53.505 74.2744 54.4685 74.5817C56.4918 75.3191 59.1895 77.9616 59.1895 79.1906C59.1895 80.2353 47.8206 77.2241 30.0445 71.5091L17.0377 67.3918L16.7005 65.3024C16.556 64.1349 16.4114 63.1516 16.4596 63.0902C16.5078 63.0287 18.6274 63.2131 21.1324 63.5203C23.6375 63.7661 25.8053 63.889 25.9016 63.7661C26.2388 63.3974 22.0959 62.2913 19.3982 62.0455C16.6041 61.7997 16.556 61.7382 16.4114 59.8332L16.2669 57.8667L18.0975 58.2969C20.4098 58.85 26.1425 59.7103 26.3352 59.526C26.6724 59.1572 21.7105 57.3751 19.35 57.0064C17.5194 56.6992 16.7968 56.3304 16.7968 55.6545C16.7968 54.8556 17.5194 54.7941 21.7587 55.1014C24.4564 55.3472 27.9731 55.7159 29.5628 55.9003C34.0911 56.5148 32.405 55.6545 27.106 54.6098C20.2171 53.2578 17.7603 52.3975 17.7603 51.1685C17.7603 49.0177 18.9646 48.8947 22.963 50.554ZM96.5722 61.2466C98.1619 63.3974 100.715 67.8834 102.305 71.2633C107.508 82.2018 114.541 93.4475 123.549 105.246C132.221 116.553 135.207 120.978 137.375 125.771L138.628 128.414L143.83 127.185C148.311 126.14 151.201 125.956 164.93 125.956C176.588 125.894 181.358 126.079 182.851 126.693C185.26 127.615 190.221 131.241 191.426 133.023C192.486 134.497 192.148 134.497 188.535 132.9C186.946 132.224 182.947 130.995 179.623 130.073C173.987 128.598 173.024 128.537 164.689 128.905C159.776 129.09 152.742 129.704 149.081 130.196C145.42 130.626 141.759 130.872 140.988 130.687C140.217 130.503 137.568 130.995 134.966 131.794L130.342 133.207L128.27 130.257C127.114 128.66 124.465 124.542 122.345 121.101C120.274 117.66 116.853 112.498 114.782 109.609C112.662 106.721 110.446 103.403 109.772 102.235C109.145 101.068 107.074 98.1178 105.292 95.7827C103.461 93.386 98.7881 86.6263 94.9343 80.7269C91.0804 74.8275 85.974 67.4533 83.6135 64.3192L79.326 58.7271L81.6384 58.2969C82.9391 58.1126 84.3361 57.8053 84.7215 57.7438C85.1069 57.6209 87.3228 57.498 89.587 57.4366L93.7781 57.3751L96.5722 61.2466ZM84.5288 67.9449C87.1783 71.4477 91.8993 78.3303 94.9824 83.3079C101.052 93.1402 106.448 101.129 110.783 106.844C112.325 108.872 115.697 113.85 118.25 117.905C120.803 121.961 123.79 126.509 124.85 128.045C125.862 129.581 127.114 131.732 127.548 132.9C128.27 134.866 128.367 134.928 130.486 134.559C145.372 131.855 167.917 130.38 174.324 131.609C175.866 131.916 173.264 132.285 165.653 132.777C150.719 133.821 126.343 136.956 118.925 138.799C117.865 139.045 117.239 138.369 114.3 133.76C109.338 125.956 100.715 111.207 97.632 105.246C95.416 100.883 86.6002 87.2408 73.4489 67.7605L70.3176 63.0902L72.8226 62.4757C74.2197 62.1069 76.2911 61.7997 77.4955 61.7382C79.6151 61.6768 79.7114 61.7997 84.5288 67.9449ZM73.1598 70.3415C79.4224 79.0063 85.974 89.0229 87.3228 91.9112C87.9973 93.386 89.4425 95.6598 90.5505 97.0117C91.6585 98.3637 94.0671 102.235 95.9459 105.615C101.871 116.308 113.24 136.28 114.445 138.062C115.649 140.028 115.842 141.81 114.926 143.838C114.348 145.19 114.252 145.067 111.843 141.073C110.446 138.799 108.856 136.341 108.278 135.727C107.026 134.313 110.446 140.643 113.77 145.989C115.408 148.57 115.986 149.983 115.793 150.844C115.601 151.458 115.312 152.011 115.167 152.011C114.493 152.011 108.375 143.592 104.906 137.877C102.931 134.682 99.7034 129.52 97.7283 126.447C95.7532 123.375 92.8146 118.52 91.2731 115.693C89.6833 112.866 87.8046 109.671 87.1302 108.688C86.4076 107.643 83.8544 103.526 81.4457 99.4698C79.037 95.414 75.7612 90.6207 74.1233 88.8386C69.7395 83.9224 65.4039 75.1962 67.379 75.1962C67.6199 75.1962 68.8242 76.9169 70.1249 79.0063C71.3774 81.0956 72.6781 83.2464 73.0153 83.7995C73.5452 84.5984 73.5934 84.5984 73.6416 83.6766C73.6416 83.1235 72.5818 80.9113 71.3292 78.7604C70.0286 76.6096 68.7279 74.213 68.3907 73.3527C67.5235 71.1404 70.992 75.9337 73.4007 80.2967C74.4605 82.2018 75.9539 84.3526 76.7247 85.09L78.1217 86.442L77.2546 84.5984C76.7729 83.5537 74.7977 80.1738 72.8708 76.9783C70.8957 73.7828 69.4023 70.8331 69.5468 70.403C69.6913 69.9728 69.4505 68.8052 69.0651 67.822C68.2943 65.8555 68.1498 64.7494 68.7279 64.7494C68.9206 64.7494 70.8957 67.2689 73.1598 70.3415ZM25.0345 72.0622C27.5395 72.7381 34.4283 74.8275 40.4019 76.6711C46.3754 78.5761 53.4087 80.5426 56.0582 81.0342C60.9719 82.0174 61.55 82.4476 63.0916 85.8274C63.5251 86.8107 63.477 86.9336 62.7062 86.6878C62.2244 86.5034 59.334 85.766 56.2991 85.0286C45.2192 82.4476 34.8619 79.375 34.0911 78.5146C33.7057 78.023 33.0313 77.6543 32.6941 77.6543C32.3087 77.6543 29.7555 76.9169 26.9614 76.0566C23.1557 74.889 21.4215 74.0286 20.169 72.6767C18.0975 70.4644 18.6274 70.403 25.0345 72.0622ZM65.3076 75.8722C64.874 77.9616 68.8724 85.09 74.9904 93.0788C77.9772 97.0117 81.3493 101.989 82.4573 104.14C84.3843 107.889 99.3662 132.715 103.943 139.721C108.808 147.218 113.385 153.363 114.734 154.285C115.504 154.777 116.612 155.022 117.239 154.838C118.684 154.346 134.051 152.196 139.398 151.704C141.807 151.458 145.805 150.905 148.311 150.414C153.61 149.43 172.494 147.095 175.288 147.095C177.166 147.095 177.215 147.157 177.215 149.185V151.212L172.253 152.257C169.507 152.749 164.689 153.486 161.558 153.855C158.379 154.162 153.272 154.838 150.237 155.391C145.276 156.19 140.603 156.866 120.37 159.631L114.83 160.43L112.758 157.911C110.013 154.654 101.582 141.872 101.582 141.011C101.582 140.643 101.823 140.335 102.064 140.335C102.353 140.335 102.546 140.028 102.546 139.721C102.546 139.352 101.968 139.106 101.245 139.106C100.137 139.106 99.1735 137.939 95.7532 132.47C93.4409 128.844 88.7199 121.715 85.2032 116.676C77.8327 105.984 72.4372 97.5648 69.1133 91.481C67.8126 89.0844 65.8375 85.9503 64.7295 84.414C63.6215 82.8777 62.0318 80.4811 61.1646 79.0677L59.6231 76.4867L60.7311 75.5649C61.3092 75.0119 62.658 74.5817 63.6697 74.5817C65.3557 74.5817 65.5484 74.7046 65.3076 75.8722ZM38.8121 82.3247C41.1726 83.185 46.7608 84.7827 51.2409 85.9503C64.3441 89.2687 65.6929 89.8218 67.7162 93.0788L69.4023 95.7827L66.6082 96.2128C64.4404 96.5815 62.1763 96.2743 55.3838 94.5536C50.711 93.386 44.2076 91.9112 40.8836 91.1738C37.5596 90.4978 33.0313 89.2687 30.7671 88.4699C28.503 87.6095 24.1674 86.5649 21.1324 86.0732C15.6888 85.1515 12.7503 84.1068 13.1838 83.185C13.3283 82.8777 16.1224 82.509 19.4464 82.2632C22.7222 82.0174 26.1425 81.5872 27.0096 81.3414C30.2372 80.3582 34.5247 80.7269 38.8121 82.3247ZM10.7751 85.6431C11.1124 87.7324 10.0044 90.4363 7.2103 94.4307C5.42788 96.9503 4.56076 100.637 3.98268 107.827C3.64546 112.559 4.36807 116.246 6.87309 122.207C8.70368 126.447 9.13724 128.475 8.65551 130.134C8.36647 131.179 8.22195 131.118 6.77674 129.581C3.78998 126.386 2.10391 120.363 1.574 111.084C1.28496 106.352 1.42948 104.816 2.2966 101.129C2.82651 98.7938 3.30825 96.2743 3.30825 95.6598C3.30825 92.5872 8.27012 83.7995 10.0044 83.7995C10.2452 83.7995 10.5824 84.6598 10.7751 85.6431ZM20.3135 87.7939C23.1076 88.2241 27.0578 89.3302 29.0811 90.252C31.2971 91.2352 34.5247 92.0341 37.4151 92.3413C39.9683 92.5872 43.485 93.3246 45.2192 93.8776C46.9534 94.4307 51.1927 95.5983 54.613 96.4586C59.5749 97.7491 61.1646 98.4251 62.2244 99.6541C63.6697 101.436 63.8624 102.911 62.8025 104.079C61.7909 105.123 61.8872 107.704 63.0434 109.917L63.9587 111.76L62.7062 113.419L61.4537 115.14L62.369 117.66C62.8507 119.134 63.1879 121.285 63.1397 122.637C63.0434 123.928 62.9471 125.956 62.8989 127.123L62.8025 129.274L59.1895 128.967C56.0582 128.721 55.8174 128.782 57.5034 129.335C58.5633 129.643 59.9121 130.073 60.5384 130.257C61.6945 130.565 61.8391 130.933 61.1646 132.224C60.8756 132.9 59.4304 132.838 53.3605 131.794C37.0297 129.151 34.3802 129.458 49.3621 132.285C61.9354 134.743 61.9836 134.743 62.369 136.157C62.8989 138.43 61.9354 138.676 57.1662 137.57C40.6427 133.76 26.4315 130.073 15.737 126.754C10.0525 124.972 9.52263 124.727 8.70368 122.944C6.82491 119.012 5.95779 114.464 5.95779 108.319C5.95779 102.973 6.10231 102.112 7.403 98.7938C8.65551 95.7827 9.08907 95.1067 10.2934 94.9223C12.8466 94.5536 33.7057 97.0732 38.234 98.3022C39.6792 98.6709 39.6792 98.6709 38.6194 97.6877C37.4151 96.5815 30.4781 95.1681 23.3003 94.5536C17.8566 94.1235 11.016 93.0173 11.016 92.5872C11.016 92.4028 11.4014 91.5425 11.9313 90.6821C12.413 89.7604 12.9911 88.4084 13.1356 87.6095C13.4247 86.6263 13.7619 86.319 14.3882 86.5649C14.8699 86.7492 17.5676 87.3023 20.3135 87.7939ZM71.5219 99.2854C73.3044 101.744 76.7247 107.766 76.4838 108.012C76.3875 108.135 73.8343 108.933 70.7993 109.855C65.0185 111.637 65.2594 111.637 64.0069 108.872C63.477 107.766 64.2477 107.151 66.2229 107.151C66.9936 107.151 67.3308 106.905 67.09 106.475C66.8973 106.045 66.0783 105.922 65.163 106.107C63.2843 106.475 63.2361 106.291 64.2959 103.526C64.874 102.051 64.9703 101.129 64.6331 100.207C64.1514 98.9782 64.3441 98.7938 66.6082 98.1793C67.9571 97.7491 69.306 97.4419 69.595 97.3804C69.8359 97.3804 70.7512 98.2407 71.5219 99.2854ZM82.9872 116.676C85.6368 120.363 88.2381 124.051 88.7681 124.849C89.9724 126.57 89.4907 127.123 86.4076 127.738C85.2996 127.922 83.9507 128.537 83.469 129.028C82.6018 129.95 82.6018 129.95 83.758 129.643C84.4324 129.458 86.2149 128.967 87.8046 128.537L90.5986 127.799L91.9957 129.766C93.6336 132.101 93.4409 132.961 91.3213 132.961C89.3943 132.961 71.3774 136.956 65.1149 138.799C64.2477 139.045 64.0069 138.861 64.0069 137.877C64.0069 137.14 63.6697 135.727 63.2361 134.743C62.5617 133.023 62.5617 132.777 63.2843 131.732C63.7178 131.118 65.0185 130.319 66.1747 129.889C68.8242 128.967 68.5352 127.922 65.7893 128.414C63.9105 128.721 63.8142 128.66 64.6813 127.799C65.2112 127.246 65.982 126.816 66.4155 126.816C66.8491 126.816 67.379 126.57 67.6681 126.324C67.9089 126.017 69.4023 125.464 70.992 125.034C74.027 124.235 78.1217 122.514 77.8327 122.084C77.7363 122.023 75.2313 122.576 72.2927 123.436C69.3541 124.296 66.4155 124.972 65.7411 124.972C64.585 124.972 64.4886 124.727 64.4886 122.453C64.4886 121.039 64.1514 119.012 63.7178 117.844C62.9471 115.816 62.9952 115.632 63.8142 114.464C64.3441 113.727 65.2594 112.866 65.9338 112.559C67.379 111.822 76.4356 109.671 77.4955 109.794C77.8808 109.855 80.3859 112.928 82.9872 116.676ZM256.412 118.52C256.749 119.749 255.4 120.425 251.595 120.978C250.053 121.224 247.259 122.084 245.38 122.883C239.503 125.341 236.516 125.71 225.87 125.28C219.174 124.972 215.224 125.095 213.634 125.525C209.973 126.632 204.288 129.581 200.145 132.654C198.026 134.19 196.243 135.296 196.147 135.173C195.81 134.805 202.361 130.073 206.263 127.799C214.934 122.76 220.667 121.408 236.468 120.671C245.766 120.241 248.945 119.872 251.402 118.95C255.352 117.414 256.026 117.352 256.412 118.52ZM255.304 122.76C254.967 123.252 253.811 123.866 252.703 124.051C251.595 124.296 250.149 124.849 249.475 125.28C248.8 125.71 246.151 126.632 243.55 127.369C240.948 128.168 238.925 128.905 239.069 129.09C239.407 129.581 246.874 127.553 250.679 125.894C252.51 125.095 254.196 124.604 254.389 124.788C254.629 124.911 254.774 125.71 254.774 126.447C254.774 127.738 254.244 128.106 250.583 129.643C248.222 130.626 246.681 131.486 247.114 131.609C247.548 131.732 249.234 131.24 250.872 130.565C254.437 128.967 255.641 128.905 254.774 130.134C253.811 131.671 250.535 132.9 243.453 134.436C238.925 135.419 237.432 135.911 238.877 135.972C240.804 136.034 247.982 134.805 251.546 133.821C253.088 133.391 253.281 134.252 251.932 135.972C250.246 138.123 234.83 141.503 220.812 142.793C216.572 143.162 210.454 143.715 207.227 144.023C203.999 144.33 200.868 144.883 200.338 145.252C199.278 145.989 197.929 145.682 197.929 144.76C197.929 144.453 200.531 142.732 203.662 140.888C206.841 139.106 209.346 137.509 209.298 137.447C209.057 137.14 200.82 140.95 198.652 142.302L196.725 143.531L198.17 141.564C198.989 140.458 202.169 138 205.396 135.911C208.576 133.944 210.551 132.47 209.732 132.654C207.082 133.391 201.494 136.648 198.266 139.352C195.81 141.442 194.942 141.872 194.557 141.257C193.401 139.414 196.243 136.956 205.396 131.794C213.73 127.123 215.753 126.632 224.569 127.062C236.468 127.615 237.094 127.553 245.91 124.665C254.967 121.654 256.171 121.408 255.304 122.76ZM26.0943 131.732C30.8153 132.777 36.2589 134.129 38.1377 134.805C40.0646 135.481 44.4002 136.587 47.8206 137.263C53.7941 138.492 59.4786 140.151 62.1281 141.442C63.0916 141.933 63.7178 141.872 64.7776 141.134C65.982 140.274 70.1731 139.106 80.3859 136.71C81.8311 136.402 85.5886 135.604 88.7199 135.051C94.3562 134.006 94.3562 134.006 95.4642 135.296C96.0423 135.972 96.9094 137.386 97.3429 138.369L98.2101 140.213L95.416 140.581C93.9226 140.766 89.4425 141.257 85.4441 141.626C81.4939 141.995 76.5802 142.671 74.605 143.162C64.2477 145.62 64.1996 145.62 59.1895 143.469C56.6845 142.363 51.9153 140.95 48.5913 140.274C45.2674 139.598 38.9085 138.062 34.3802 136.956C24.2637 134.375 10.8233 130.872 10.6306 130.749C10.5343 130.687 10.6306 129.95 10.7751 129.09L11.1124 127.553L14.2918 128.721C16.0742 129.397 21.3733 130.749 26.0943 131.732ZM258.002 132.654C259.447 133.944 260.41 137.754 259.543 138.799C258.724 139.721 240.755 144.391 234.782 145.252C232.421 145.559 227.508 146.112 223.943 146.481C220.378 146.849 214.212 148.017 210.31 149C203.469 150.721 199.374 151.212 198.748 150.414C198.604 150.229 198.7 149.369 198.989 148.631C199.567 146.972 198.989 147.095 214.549 145.559C227.122 144.33 237.769 142.609 245.621 140.581C254.051 138.369 255.978 137.017 254.774 134.19C254.389 133.268 254.485 132.9 255.111 132.408C256.316 131.548 256.797 131.609 258.002 132.654ZM185.404 135.542C187.668 136.218 189.692 136.956 189.884 137.263C190.125 137.509 186.223 137.877 181.213 138.062C176.251 138.307 170.759 138.861 169.025 139.352L165.894 140.213L168.062 140.274C169.266 140.274 172.831 140.028 176.01 139.659C181.839 138.983 186.753 139.352 185.404 140.335C184.441 141.011 179.768 141.995 175.047 142.486C171.867 142.855 171.434 143.039 172.397 143.531C173.168 143.9 174.999 143.838 177.407 143.469C181.936 142.671 182.995 142.609 182.995 143.285C182.995 144.207 177.841 145.497 174.565 145.374C171.434 145.252 167.532 145.743 151.683 148.078C148.359 148.57 142.722 149.246 139.158 149.553C135.593 149.922 130.39 150.598 127.596 151.09C124.802 151.52 121.382 152.073 120.033 152.257C117.479 152.564 117.479 152.564 117.479 150.782C117.479 149.799 117.287 148.324 117.046 147.525C116.612 146.112 116.709 145.989 118.78 145.62C119.984 145.436 121.671 145.252 122.49 145.252C123.646 145.252 123.79 145.067 123.26 144.637C122.875 144.33 121.285 144.023 119.792 144.023C116.805 144.023 116.468 143.592 117.961 141.872C118.636 141.073 120.418 140.581 124.079 140.028C126.97 139.598 130.583 138.922 132.172 138.553C133.762 138.246 138.772 137.447 143.252 136.894C167.917 133.883 178.756 133.514 185.404 135.542ZM197.207 147.095C198.218 149.246 193.594 152.441 188.535 153.056C184.826 153.486 181.454 152.134 180.25 149.799C178.949 147.218 180.057 146.788 183.525 148.631C187.524 150.782 191.185 150.598 193.931 148.14C195.858 146.358 196.725 146.112 197.207 147.095Z" fill="white"/>
<path d="M140.988 21.4872C140.844 21.6715 138.387 22.3475 135.545 22.962C132.702 23.5765 130.245 24.314 130.053 24.5598C129.571 25.2357 137.761 24.191 140.506 23.2078C141.903 22.7162 142.915 22.0402 142.771 21.733C142.433 21.057 141.422 20.9341 140.988 21.4872Z" fill="white"/>
<path d="M33.6576 56.7606C33.6576 57.3751 36.7407 58.9114 38.9566 59.4031C43.3404 60.4477 58.8523 62.9058 59.045 62.66C59.2859 62.3528 58.1297 62.0455 51.9635 61.0623C47.9651 60.3863 41.9916 58.9114 36.4516 57.1293C34.9101 56.6377 33.6576 56.4534 33.6576 56.7606Z" fill="white"/>
<path d="M12.1722 97.872C12.413 98.3637 14.1955 98.7324 21.9996 100.023C24.1192 100.392 22.1441 98.6709 19.6391 97.9949C16.7005 97.1961 11.835 97.1346 12.1722 97.872Z" fill="white"/>
<path d="M10.727 101.928C11.3051 102.481 12.7021 102.85 14.34 102.788C17.0377 102.727 17.0377 102.727 15.5925 101.928C14.8217 101.436 13.1838 101.068 11.9795 101.068C9.95621 101.068 9.85986 101.129 10.727 101.928Z" fill="white"/>
<path d="M39.1975 115.755C40.0165 116.062 43.774 116.922 47.6279 117.598C51.4818 118.336 55.9619 119.319 57.648 119.81C61.1646 120.794 62.5617 120.917 62.5617 120.118C62.5617 119.503 59.4304 118.766 50.0366 116.984C41.9916 115.509 37.2706 114.956 39.1975 115.755Z" fill="white"/>
<path d="M46.4235 125.833C48.1096 126.877 51 127.185 50.2293 126.201C49.9884 125.894 48.6877 125.464 47.387 125.28C44.9783 124.972 44.9783 124.972 46.4235 125.833Z" fill="white"/>
<path d="M67.8607 131.794C66.4155 132.039 64.6813 132.531 64.0069 132.9C62.8507 133.453 62.8989 133.514 64.4886 133.514C66.8491 133.514 70.2212 132.654 70.8957 131.794C71.1847 131.425 71.2329 131.179 70.992 131.179C70.703 131.24 69.3059 131.486 67.8607 131.794Z" fill="white"/>
<path d="M119.117 149.184C120.177 150.291 122.586 150.475 123.019 149.553C123.164 149.184 122.875 148.939 122.393 148.939C121.863 148.939 120.707 148.754 119.84 148.57C118.298 148.263 118.25 148.263 119.117 149.184Z" fill="white"/>
</svg>
