<?xml version="1.0" standalone="no"?>
<!DOCTYPE svg PUBLIC "-//W3C//DTD SVG 20010904//EN"
 "http://www.w3.org/TR/2001/REC-SVG-20010904/DTD/svg10.dtd">
<svg version="1.0" xmlns="http://www.w3.org/2000/svg"
 width="413.000000pt" height="550.000000pt" viewBox="0 0 413.000000 550.000000"
 preserveAspectRatio="xMidYMid meet">

<g transform="translate(0.000000,550.000000) scale(0.100000,-0.100000)"
fill="#000000" stroke="none">
<path d="M309 5481 c-110 -35 -193 -113 -248 -232 -65 -140 -61 11 -61 -2489
0 -2021 2 -2279 16 -2347 41 -198 143 -324 302 -373 118 -37 258 -17 403 56
74 37 3047 2072 3168 2168 83 66 152 152 201 249 l40 78 0 170 0 169 -36 73
c-69 137 -144 217 -309 332 -920 639 -3001 2060 -3063 2092 -142 71 -295 92
-413 54z m227 -155 c28 -7 82 -30 120 -50 101 -54 3068 -2095 3143 -2163 215
-193 226 -447 27 -647 -45 -46 -432 -317 -1484 -1040 -1762 -1210 -1685 -1158
-1757 -1185 -74 -28 -166 -37 -223 -22 -55 15 -116 71 -149 134 -55 110 -53 2
-53 2362 0 1407 4 2212 10 2270 14 118 33 182 72 241 69 101 166 134 294 100z"/>
</g>
</svg>
