<svg width="31" height="44" viewBox="0 0 31 44" fill="none" xmlns="http://www.w3.org/2000/svg">
<g clip-path="url(#clip0_12_66)">
<path d="M30.8497 0.0782951C30.7302 0.0263969 30.5978 0.0157392 30.4692 0.00786175C30.298 0.00415473 30.1263 0.000216028 29.9555 0.0138857C29.5948 0.0588333 29.2441 0.157764 28.8965 0.259939C27.921 0.558354 26.9792 0.953847 26.0458 1.36162C24.8965 1.87365 23.7643 2.42414 22.6506 3.00869C22.3738 3.15558 22.0938 3.29761 21.8256 3.45956C22.7746 3.03186 23.7291 2.61668 24.6872 2.20937C25.4768 1.87481 26.2704 1.54882 27.0724 1.24369C27.8634 0.947823 28.6591 0.655895 29.4825 0.461045C29.7893 0.395245 30.1025 0.335006 30.418 0.35887C29.9191 0.630409 29.411 0.894071 28.9673 1.25203C28.3613 1.72699 27.8511 2.35811 27.64 3.106C26.9557 5.61728 26.2919 8.13411 25.6777 10.6635C25.6162 10.9204 25.5521 11.1771 25.4985 11.4359C26.27 9.04581 26.9906 6.63972 27.6891 4.22784C27.7928 3.87312 27.8928 3.51748 27.9992 3.16369C28.1924 2.5423 28.6171 2.01614 29.119 1.61022C29.4979 1.30184 29.9187 1.04953 30.3488 0.819004C30.5135 0.728877 30.6829 0.646627 30.8378 0.540282C30.9203 0.483287 31.0007 0.399879 30.9993 0.293302C31.0012 0.198542 30.9334 0.11606 30.8497 0.0782951Z" fill="white"/>
<path d="M24.7404 2.74763C24.7632 2.73094 24.7648 2.70986 24.7455 2.68414C23.1649 3.7191 21.6276 4.81939 20.1406 5.98362C19.4793 6.50423 18.8328 7.04337 18.2046 7.60289C17.5562 8.18443 16.9276 8.79007 16.3558 9.44714C16.0818 9.76617 15.8209 10.0968 15.5925 10.4499C15.391 10.7736 15.1967 11.1019 14.9807 11.4165C14.3187 12.3921 13.5554 13.2941 12.8646 14.2489C12.338 14.9738 11.8564 15.7333 11.4603 16.5368C10.7462 17.9779 10.345 19.5747 10.3201 21.1822C10.3313 21.1829 10.3539 21.184 10.365 21.1847C10.5167 20.1556 10.7618 19.1368 11.1421 18.1665C11.4878 17.2761 11.9415 16.4295 12.4648 15.6304C13.4163 14.168 14.5571 12.8356 15.4711 11.3481C15.6359 11.0847 15.7812 10.8099 15.946 10.5465C16.4343 9.79305 17.0448 9.12741 17.6736 8.48864C18.329 7.83412 19.0171 7.21296 19.7226 6.61219C21.3298 5.24291 23.0136 3.96399 24.7404 2.74763Z" fill="white"/>
<path d="M20.2615 9.94709C20.1941 9.89658 20.1235 9.85047 20.0546 9.80182C18.3826 12.2088 16.7451 14.6397 15.154 17.1005C14.1882 18.5986 13.2388 20.1076 12.3385 21.6457C11.8879 22.4194 11.4489 23.2004 11.0465 24.0002C10.6055 24.8919 10.2068 25.8036 9.82329 26.7211C9.09984 28.4574 8.43883 30.2182 7.77154 31.9763C7.73775 32.0602 7.76198 32.1614 7.70234 32.2365C7.61776 32.3287 7.59539 32.4549 7.54669 32.5664C7.39688 32.9586 7.2459 33.3504 7.09189 33.7411C6.77921 33.7334 6.46536 33.7253 6.15455 33.691C6.36634 33.2339 6.56485 32.7705 6.77757 32.3136C6.81695 32.2425 6.80344 32.1563 6.84258 32.0854C6.86705 32.0326 6.9197 32.0001 6.94463 31.9485C7.58444 30.5607 8.24032 29.18 8.90296 27.8029C9.06139 27.4757 9.21401 27.146 9.39271 26.8293C11.1334 23.6063 12.8753 20.384 14.6139 17.16C14.5398 17.1223 14.4676 17.0812 14.393 17.0446C12.5927 20.3749 10.7946 23.7064 8.99569 27.0371C8.37592 28.3105 7.76804 29.5894 7.16761 30.8716C6.97656 31.2747 6.79552 31.6827 6.60236 32.0847C5.99238 32.1102 5.3838 32.1753 4.78314 32.2844C4.3931 32.362 4.00074 32.4517 3.6389 32.6208C3.49374 32.6927 3.34905 32.7809 3.26611 32.926C3.40147 32.7344 3.62259 32.6403 3.83531 32.5629C4.25028 32.4183 4.68575 32.3454 5.11982 32.2854C5.59909 32.2279 6.08115 32.1883 6.56392 32.1809C6.33395 32.6751 6.11191 33.173 5.89429 33.6727C5.32066 33.6169 4.74679 33.5349 4.1918 33.3766C3.99841 33.3171 3.80363 33.2531 3.62888 33.1496C3.56667 33.1076 3.49188 33.0652 3.46998 32.9885C3.40381 32.9941 3.33787 33.0017 3.2717 33.0122C3.2717 32.9725 3.27123 32.9336 3.26844 32.8949C3.26681 32.9336 3.26564 32.9725 3.26471 33.0122C3.18899 33.018 3.1128 33.0244 3.03731 33.036C3.04896 33.1778 3.12841 33.3062 3.23652 33.3963C3.41476 33.5469 3.63681 33.6312 3.85559 33.7047C4.4658 33.8954 5.10491 33.9737 5.74005 34.026C5.5702 34.447 5.37891 34.8622 5.25961 35.3012C5.21139 35.5765 5.17574 35.8545 5.16619 36.1342C5.17364 36.2875 5.18179 36.4636 5.30319 36.5758C5.41549 36.6821 5.58861 36.6666 5.72351 36.617C5.88171 36.5556 6.04644 36.4819 6.15106 36.3429C6.29668 36.1571 6.40525 35.9458 6.5115 35.7361C6.77572 35.1954 7.00615 34.6386 7.22516 34.0786C8.27481 34.0506 9.33447 33.9848 10.3531 33.7137C10.6017 33.6442 10.8499 33.5617 11.0728 33.4306C11.198 33.3525 11.3266 33.2524 11.3697 33.1053C11.4114 32.9698 11.3454 32.8252 11.2439 32.7344C11.0752 32.5808 10.8564 32.4987 10.643 32.4269C10.0936 32.2532 9.519 32.1785 8.94723 32.1213C8.63315 32.0993 8.31908 32.0724 8.00407 32.0683C8.72752 30.1682 9.43978 28.2632 10.2343 26.3912C10.5871 25.5645 10.9517 24.7425 11.3578 23.9402C11.7884 23.1001 12.2565 22.2792 12.7355 21.4653C13.7425 19.7637 14.8043 18.0949 15.8833 16.4374C17.3113 14.2533 18.7684 12.0879 20.2615 9.94709ZM9.36616 32.3345C9.80838 32.4058 10.252 32.4899 10.6716 32.6498C10.835 32.7168 11.0078 32.7877 11.1248 32.9248C11.1677 32.9725 11.1707 33.046 11.126 33.0942C11.0421 33.1933 10.9212 33.2524 10.804 33.3046C10.5379 33.4183 10.2543 33.4843 9.97125 33.5423C9.44584 33.6403 8.91251 33.7007 8.37826 33.72L8.36265 33.7288C8.02877 33.736 7.69442 33.7536 7.3603 33.7438C7.56254 33.2306 7.75803 32.7149 7.95537 32.1999C8.42789 32.2168 8.89877 32.2666 9.36616 32.3345ZM6.95838 34.0765C6.70302 34.7019 6.45442 35.333 6.12776 35.9259C6.0334 36.0746 5.94859 36.2526 5.77454 36.3228C5.68064 36.3619 5.573 36.4344 5.46955 36.3909C5.40011 36.2713 5.41829 36.1249 5.42155 35.9926C5.43903 35.8249 5.45557 35.6569 5.48166 35.4903C5.49728 35.3286 5.55762 35.1768 5.61005 35.0246C5.72025 34.7229 5.8449 34.4266 5.96932 34.1308C5.9847 34.1004 5.99052 34.0629 6.01895 34.0427C6.33116 34.0689 6.64524 34.0701 6.95838 34.0765Z" fill="white"/>
<path d="M25.3878 11.3083C25.3398 11.3087 25.2911 11.3073 25.2436 11.3178C24.2254 11.5328 23.2189 11.817 22.2561 12.2125C21.8537 12.3865 21.4472 12.5703 21.107 12.8504C20.9791 12.9618 20.8309 13.1101 20.8682 13.2957C20.9078 13.463 21.0858 13.5376 21.2384 13.5709C21.6315 13.6504 22.036 13.6261 22.4334 13.6022C23.2794 13.5366 24.1201 13.4041 24.9465 13.2134C23.9374 13.2572 22.9288 13.3545 21.9176 13.3379C21.6701 13.3172 21.4087 13.3302 21.1778 13.2243C21.3179 13.058 21.5052 12.9407 21.6902 12.8298C22.0224 12.6391 22.3719 12.4804 22.7235 12.3284C23.5334 11.9815 24.3629 11.6827 25.1865 11.3699C25.2513 11.3421 25.3189 11.3219 25.3878 11.3083Z" fill="white"/>
<path d="M24.563 13.5767C23.9787 14.8865 23.5325 16.2511 22.9987 17.5812C22.8426 17.9554 22.6893 18.3349 22.4633 18.6741C22.4351 18.7316 22.361 18.717 22.3086 18.7323C21.545 18.8826 20.7899 19.0923 20.0732 19.397C19.7731 19.5309 19.4705 19.6762 19.2235 19.8965C19.1293 19.9862 19.0289 20.0995 19.0434 20.2389C19.0497 20.3687 19.1664 20.4593 19.2808 20.4993C19.5152 20.5777 19.7661 20.5786 20.0108 20.5777C20.5867 20.5672 21.1576 20.4794 21.7242 20.3823C21.4143 20.7644 21.1117 21.1525 20.7873 21.5229C20.1645 22.2507 19.5017 22.946 18.7868 23.5854C18.4078 23.9168 18.0156 24.2337 17.6007 24.5198C17.1857 24.7976 16.7505 25.0446 16.3029 25.2668C15.41 25.7181 14.4792 26.0905 13.5386 26.4306C12.8464 26.6808 12.1467 26.9097 11.4431 27.1261C11.3214 27.1606 11.2024 27.206 11.0766 27.225C11.1989 27.2343 11.318 27.2005 11.4379 27.184C12.5093 26.995 13.5636 26.7156 14.5929 26.3664C15.4758 26.0569 16.3441 25.6977 17.1584 25.236C17.9865 24.7638 18.7263 24.1505 19.3905 23.4715C20.2994 22.5396 21.0921 21.4949 21.7473 20.3719C21.892 20.3455 22.0346 20.3084 22.179 20.2799C21.8754 20.2684 21.5721 20.2929 21.2685 20.295C20.7941 20.3031 20.3193 20.3177 19.8451 20.2904C19.6913 20.2744 19.535 20.2633 19.3875 20.2137C19.381 20.1887 19.3882 20.169 19.4087 20.1546C19.6065 19.9672 19.8528 19.8425 20.093 19.7183C20.8062 19.3701 21.552 19.0953 22.2878 18.7994C22.3547 18.7705 22.4293 18.7594 22.4903 18.7181C22.7422 18.4941 22.9498 18.2249 23.1247 17.938C23.5651 17.2121 23.8729 16.4149 24.1255 15.6077C24.307 15.0155 24.4537 14.412 24.5439 13.7991C24.5563 13.7257 24.5665 13.6513 24.563 13.5767Z" fill="white"/>
<path d="M8.63244 17.1433C8.52247 17.1067 8.41832 17.2177 8.41553 17.3217C8.35285 17.9679 8.32815 18.6176 8.31837 19.2668C8.31371 19.8935 8.31231 20.5209 8.34959 21.1467C8.38221 21.7234 8.43417 22.301 8.55207 22.8672C8.61753 23.1413 8.68137 23.4272 8.84867 23.6605C8.73403 23.4012 8.70234 23.1167 8.67485 22.8375C8.62079 22.2356 8.63035 21.6305 8.63035 21.0269C8.63851 20.6089 8.65109 20.1914 8.65715 19.7737L8.66646 19.7577C8.66996 19.4403 8.68883 19.1231 8.70234 18.8059C9.053 19.6409 9.55371 20.4053 10.108 21.1193C10.2445 21.2917 10.3832 21.4629 10.5323 21.6249C10.0155 20.7799 9.50734 19.9238 9.12709 19.0077C8.97005 18.6153 8.82606 18.2107 8.78785 17.7872C8.7741 17.6225 8.79228 17.4575 8.78506 17.2928C8.76059 17.2249 8.69768 17.1723 8.63244 17.1433Z" fill="white"/>
<path d="M7.72379 20.7299C7.68767 20.6738 7.63595 20.6245 7.57211 20.6015C7.48217 20.5735 7.39853 20.6509 7.36963 20.7299C7.351 20.8365 7.34377 20.9449 7.33958 21.0533L7.33073 21.0682C7.26152 22.2027 7.22961 23.3417 7.28949 24.4777C7.31698 25.0715 7.36824 25.666 7.48148 26.2506C7.52388 26.4547 7.57397 26.6581 7.6497 26.853C7.68908 26.9475 7.73124 27.0434 7.79998 27.1213C7.70329 26.9368 7.67626 26.7265 7.64457 26.5237C7.56279 25.8382 7.57374 25.1463 7.57747 24.4571C7.58399 23.9318 7.59681 23.4066 7.62244 22.8818C7.62966 22.6738 7.62873 22.4648 7.65273 22.2579C7.70911 22.4393 7.80231 22.607 7.88525 22.7776C8.10893 23.2198 8.37361 23.6406 8.65787 24.0467C8.913 24.4045 9.17768 24.7573 9.47638 25.0805C8.97684 24.2692 8.49104 23.4448 8.11429 22.5686C7.92183 22.0992 7.738 21.611 7.72565 21.098C7.7175 20.9755 7.75151 20.8506 7.72379 20.7299Z" fill="white"/>
<path d="M6.19536 24.8231C6.15366 24.6753 5.91484 24.6607 5.86008 24.8067C5.79764 24.9946 5.85589 25.1952 5.89364 25.3827C5.97332 26.4318 6.06745 27.4859 6.31489 28.5114C6.39877 28.814 6.47077 29.1328 6.65926 29.3909C6.57864 29.1432 6.54695 28.8839 6.51737 28.6263C6.46098 28.0318 6.42184 27.4359 6.38129 26.8402C6.36522 26.6301 6.34798 26.4197 6.33889 26.2091C6.61406 26.6002 6.93792 26.9581 7.29767 27.2742C6.92627 26.704 6.52902 26.1394 6.28507 25.5001C6.2436 25.2765 6.25408 25.0442 6.19536 24.8231Z" fill="white"/>
<path d="M14.1277 27.6404C14.1295 27.5596 14.1123 27.4671 14.0408 27.4185C13.9685 27.3937 13.8926 27.4243 13.8341 27.4674C13.4746 27.7296 13.0522 27.8842 12.6388 28.041C11.808 28.3445 10.9596 28.5978 10.1155 28.8624C9.94005 28.9113 9.77043 28.9805 9.59126 29.016C9.8366 29.013 10.0759 28.9509 10.3173 28.914C11.1633 28.7553 12.0035 28.5579 12.8208 28.2873C12.1106 28.8285 11.4035 29.3749 10.6682 29.8825C10.5386 29.974 10.4005 30.0535 10.2732 30.1485C10.7474 29.9497 11.1952 29.6953 11.6325 29.427C12.3627 28.9757 13.0673 28.4836 13.747 27.9602C13.8756 27.8557 14.0119 27.7595 14.1277 27.6404Z" fill="white"/>
<path d="M12.9296 29.3388C12.8364 29.2959 12.7423 29.3601 12.6696 29.4141C12.2982 29.6726 11.8667 29.8248 11.4457 29.9831C10.6251 30.2796 9.78814 30.5289 8.95565 30.7901C8.79232 30.8364 8.63411 30.9003 8.46682 30.9323C8.59404 30.9393 8.71776 30.9073 8.84264 30.8906C9.66838 30.7528 10.4869 30.5697 11.2898 30.3327C11.4289 30.2984 11.5603 30.2338 11.702 30.2122C11.6871 30.2203 11.6572 30.2365 11.6423 30.2447C10.9508 30.7799 10.2546 31.3102 9.53488 31.8072C9.40673 31.8889 9.28697 31.9856 9.14787 32.049C9.3324 32.0073 9.49527 31.9026 9.66559 31.8245C10.4885 31.3955 11.2597 30.8753 12.0128 30.3357C12.3509 30.0843 12.698 29.842 13.0084 29.557C13.0123 29.478 12.9956 29.3902 12.9296 29.3388Z" fill="white"/>
<path d="M4.75774 34.1463C4.21579 34.7871 3.70367 35.4521 3.2032 36.1254C2.65519 36.8712 2.1242 37.6302 1.63351 38.4151C1.25117 39.0275 0.886761 39.6526 0.579207 40.3059C0.348775 40.7999 0.140009 41.3099 0.0379573 41.8471C0.00090874 42.0332 0.0167557 42.2241 0.0132584 42.4129C0.00650159 42.7941 0.251379 43.1671 0.60693 43.3116C0.940346 43.4539 1.29916 43.5229 1.65354 43.5915C2.39983 43.7243 3.1545 43.8 3.90964 43.8589C4.93388 43.9316 5.95976 43.9866 6.9868 43.9828C7.96701 43.978 8.94839 44.0002 9.9272 43.94C10.4999 43.9159 11.0712 43.8686 11.6404 43.8033C12.1623 43.7373 12.6866 43.6631 13.1908 43.5097C13.4242 43.4321 13.6719 43.3462 13.8401 43.1583C13.9708 43.0137 13.9685 42.8056 13.9748 42.6233C13.9711 42.1201 13.8129 41.6342 13.6411 41.166C13.2982 40.264 12.838 39.4119 12.3564 38.5769C11.9086 37.8058 11.4272 37.0542 10.9293 36.3142C10.5167 35.7041 10.0929 35.1015 9.64831 34.5142C10.6397 36.0596 11.6015 37.6272 12.4408 39.2606C12.6807 39.7341 12.9084 40.214 13.1115 40.7045C13.2844 41.1259 13.4433 41.555 13.5414 42.0005C13.5999 42.2785 13.6435 42.5686 13.5869 42.851C13.5731 42.9291 13.4953 42.9694 13.4331 43.0072C13.2238 43.1163 12.992 43.1733 12.763 43.2262C12.1358 43.3594 11.4957 43.4185 10.8573 43.466C9.86359 43.5343 8.86754 43.5674 7.87149 43.5623C6.79039 43.5663 5.70976 43.5345 4.63006 43.4817C3.82366 43.4324 3.01726 43.371 2.2153 43.2699C1.78379 43.2097 1.34972 43.1478 0.931726 43.0206C0.804742 42.9769 0.667509 42.9365 0.572913 42.8358C0.461076 42.7329 0.399332 42.5865 0.381392 42.4382C0.331531 42.0561 0.430321 41.6748 0.538664 41.3108C0.760242 40.6164 1.08573 39.9607 1.42521 39.3173C1.86114 38.5011 2.34787 37.7129 2.84694 36.9337C3.45902 35.988 4.0993 35.0605 4.75774 34.1463Z" fill="white"/>
<path d="M6.69858 38.5298C6.35911 38.5319 6.01707 38.4851 5.67993 38.5421C5.22209 38.6146 4.76822 38.7194 4.33042 38.872C4.12236 38.9506 3.90474 39.0305 3.73885 39.1832C3.6566 39.2562 3.6531 39.3702 3.65846 39.4719C3.65916 39.9969 3.658 40.5221 3.65893 41.0474C3.65823 41.1878 3.68712 41.3307 3.75795 41.4535C3.89099 41.697 4.16523 41.8569 4.44435 41.8497C6.37915 41.8485 8.31394 41.8499 10.2485 41.849C10.636 41.8446 10.9848 41.5038 10.9901 41.1178C10.9906 40.5295 10.9904 39.9415 10.9901 39.3535C10.9971 39.2441 10.9009 39.1693 10.8182 39.1162C10.6103 38.9902 10.3752 38.9186 10.1429 38.8517C9.66717 38.7233 9.18091 38.632 8.69069 38.5815C8.02689 38.559 7.36262 38.5456 6.69858 38.5298Z" fill="white"/>
</g>
<defs>
<clipPath id="clip0_12_66">
<rect width="31" height="44" fill="white" transform="matrix(-1 0 0 1 31 0)"/>
</clipPath>
</defs>
</svg>
