<?xml version="1.0" standalone="no"?>
<!DOCTYPE svg PUBLIC "-//W3C//DTD SVG 20010904//EN"
 "http://www.w3.org/TR/2001/REC-SVG-20010904/DTD/svg10.dtd">
<svg version="1.0" xmlns="http://www.w3.org/2000/svg"
 width="550.000000pt" height="550.000000pt" viewBox="0 0 550.000000 550.000000"
 preserveAspectRatio="xMidYMid meet">

<g transform="translate(0.000000,550.000000) scale(0.100000,-0.100000)"
fill="#000000" stroke="none">
<path d="M2545 5493 c-628 -43 -1245 -322 -1709 -772 -445 -433 -720 -976
-813 -1606 -24 -167 -24 -561 1 -730 88 -606 341 -1122 761 -1553 422 -435
958 -709 1566 -803 208 -33 590 -32 798 0 913 141 1661 684 2061 1496 43 88
97 212 120 275 52 144 118 398 126 489 7 68 6 70 -24 100 -37 38 -80 41 -117
8 -22 -19 -30 -42 -52 -147 -134 -666 -524 -1252 -1082 -1624 -330 -221 -669
-351 -1078 -413 -137 -21 -537 -24 -668 -5 -467 67 -872 233 -1232 504 -120
91 -320 282 -425 408 -304 364 -501 817 -569 1310 -18 125 -18 515 0 640 68
493 265 946 569 1310 513 614 1265 954 2052 927 203 -7 350 -28 546 -77 191
-49 311 -93 499 -185 169 -83 342 -193 490 -312 132 -107 331 -312 431 -446
71 -94 234 -353 234 -370 0 -4 -241 -8 -536 -9 l-536 -3 -24 -28 c-33 -39 -33
-99 1 -132 l24 -25 568 0 c550 0 569 1 613 21 55 25 105 71 133 124 22 39 22
47 25 608 l3 568 -30 29 c-41 41 -91 41 -132 1 l-29 -29 0 -438 0 -438 -60 90
c-93 138 -214 287 -335 409 -577 585 -1359 883 -2170 828z"/>
</g>
</svg>
